<svg xmlns="http://www.w3.org/2000/svg" viewBox="0 0 389 580" fill="black">
  <path d="M 237 327 237 339 239 341 240 341 243 344 244 344 247 347 248 347 256 355 257 355 265 363 265 364 271 370 271 371 274 374 274 375 276 377 276 378 278 380 278 381 279 382 279 383 281 385 281 386 282 387 282 388 283 389 283 390 284 391 284 392 285 393 285 394 286 395 286 396 287 397 287 398 288 399 288 401 289 402 289 403 290 404 290 406 291 407 291 409 292 410 292 413 293 414 293 417 294 418 294 423 295 424 295 436 296 437 296 447 295 448 295 457 294 458 294 462 293 463 293 466 292 467 292 470 291 471 291 473 290 474 290 476 289 477 289 479 288 480 288 482 287 483 287 484 286 485 286 486 285 487 285 489 284 490 284 491 283 492 283 493 281 495 281 496 280 497 280 498 278 500 278 501 276 503 276 504 273 507 273 508 267 514 267 515 258 524 257 524 252 529 251 529 248 532 247 532 244 535 243 535 241 537 240 537 239 538 238 538 237 539 236 539 234 541 233 541 232 542 231 542 230 543 229 543 228 544 226 544 225 545 224 545 223 546 221 546 220 547 218 547 217 548 214 548 213 549 210 549 209 550 205 550 204 551 198 551 197 552 174 552 173 551 166 551 165 550 160 550 159 549 155 549 154 548 151 548 150 547 148 547 147 546 144 546 143 545 142 545 141 544 139 544 138 543 136 543 135 542 134 542 133 541 131 541 130 540 129 540 128 539 127 539 126 538 125 538 124 537 123 537 121 535 120 535 119 534 118 534 116 532 115 532 113 530 112 530 109 527 108 527 103 522 102 522 93 513 93 512 88 507 88 506 86 504 86 503 83 500 83 499 82 498 82 497 80 495 80 494 79 493 79 492 78 491 78 490 77 489 77 488 76 487 76 486 75 485 75 484 74 483 74 482 73 481 73 479 72 478 72 477 71 476 71 474 70 473 70 471 69 470 69 468 68 467 68 465 67 464 67 461 66 460 66 458 65 457 65 453 64 452 64 449 63 448 63 443 62 442 62 435 61 434 61 416 62 415 62 406 63 405 63 401 64 400 64 397 65 396 65 394 66 393 66 391 67 390 67 388 68 387 68 386 69 385 69 384 70 383 70 382 71 381 71 380 72 379 72 378 73 377 73 376 75 374 75 373 78 370 78 369 85 362 85 361 83 359 82 359 81 358 67 358 66 359 63 359 62 360 59 360 58 361 56 361 55 362 53 362 52 363 50 363 49 364 48 364 47 365 46 365 45 366 44 366 43 367 42 367 40 369 39 369 37 371 36 371 32 375 31 375 31 376 30 377 29 377 28 378 28 379 21 386 21 387 19 389 19 390 17 392 17 393 16 394 16 395 15 396 15 397 14 398 14 399 13 400 13 401 12 402 12 404 11 405 11 407 10 408 10 409 9 410 9 413 8 414 8 417 7 418 7 421 6 422 6 428 5 429 5 456 6 457 6 462 7 463 7 467 8 468 8 470 9 471 9 474 10 475 10 477 11 478 11 480 12 481 12 482 13 483 13 485 14 486 14 487 15 488 15 489 16 490 16 491 17 492 17 493 18 494 18 495 20 497 20 498 21 499 21 500 23 502 23 503 26 506 26 507 29 510 29 511 45 527 46 527 50 531 51 531 54 534 55 534 58 537 59 537 61 539 62 539 63 540 64 540 66 542 67 542 68 543 69 543 70 544 71 544 72 545 73 545 74 546 75 546 76 547 77 547 78 548 79 548 80 549 81 549 82 550 83 550 84 551 85 551 86 552 87 552 88 553 89 553 90 554 92 554 93 555 94 555 95 556 96 556 97 557 99 557 100 558 102 558 103 559 105 559 106 560 108 560 109 561 111 561 112 562 114 562 115 563 118 563 119 564 122 564 123 565 126 565 127 566 130 566 131 567 134 567 135 568 140 568 141 569 146 569 147 570 152 570 153 571 163 571 164 572 194 572 195 571 209 571 210 570 216 570 217 569 222 569 223 568 228 568 229 567 232 567 233 566 236 566 237 565 240 565 241 564 243 564 244 563 247 563 248 562 250 562 251 561 253 561 254 560 256 560 257 559 259 559 260 558 261 558 262 557 264 557 265 556 266 556 267 555 268 555 269 554 271 554 272 553 273 553 274 552 275 552 276 551 277 551 279 549 280 549 281 548 282 548 283 547 284 547 285 546 286 546 288 544 289 544 291 542 292 542 293 541 294 541 296 539 297 539 299 537 300 537 303 534 304 534 308 530 309 530 326 513 326 512 330 508 330 507 333 504 333 503 335 501 335 500 336 499 336 498 338 496 338 495 340 493 340 492 341 491 341 490 342 489 342 488 343 487 343 486 344 485 344 484 345 483 345 482 346 481 346 480 347 479 347 478 348 477 348 475 349 474 349 473 350 472 350 470 351 469 351 467 352 466 352 465 353 464 353 461 354 460 354 458 355 457 355 454 356 453 356 450 357 449 357 445 358 444 358 440 359 439 359 434 360 433 360 425 361 424 361 394 360 393 360 387 359 386 359 381 358 380 358 377 357 376 357 372 356 371 356 368 355 367 355 365 354 364 354 362 353 361 353 360 352 359 352 357 351 356 351 355 350 354 350 352 349 351 349 350 348 349 348 348 347 347 347 346 346 345 346 344 345 343 345 342 344 341 344 340 342 338 342 337 341 336 341 335 339 333 339 332 338 331 338 330 338 366 337 367 301 367 300 366 300 365 299 365 298 364 298 362 297 361 297 360 296 359 296 357 295 356 295 353 294 352 294 351 293 350 293 349 291 347 291 343 290 342 290 341 289 340 289 339 288 338 288 335 287 334 287 333 286 332 286 330 283 327 Z"/><path d="M 237 252 237 276 279 276 278 275 277 275 276 274 275 274 273 272 272 272 270 270 269 270 268 269 267 269 266 268 265 268 263 266 262 266 261 265 260 265 259 264 258 264 256 262 255 262 254 261 253 261 252 260 251 260 249 258 248 258 247 257 246 257 245 256 244 256 242 254 241 254 240 253 239 253 238 252 Z"/><path d="M 156 5 155 6 147 6 146 7 141 7 140 8 136 8 135 9 132 9 131 10 128 10 127 11 124 11 123 12 121 12 120 13 118 13 117 14 115 14 114 15 113 15 112 16 110 16 109 17 108 17 107 18 106 18 105 19 104 19 103 20 102 20 101 21 100 21 99 22 98 22 97 23 96 23 94 25 93 25 92 26 91 26 89 28 88 28 86 30 85 30 82 33 81 33 77 37 76 37 63 50 63 51 58 56 58 57 55 60 55 61 52 64 52 65 51 66 51 67 49 69 49 70 48 71 48 72 47 73 47 74 46 75 46 76 45 77 45 78 44 79 44 80 43 81 43 82 42 83 42 84 41 85 41 87 40 88 40 90 39 91 39 92 38 93 38 95 37 96 37 98 36 99 36 102 35 103 35 106 34 107 34 110 33 111 33 115 32 116 32 123 31 124 31 152 32 153 32 162 33 163 33 168 34 169 34 172 35 173 35 176 36 177 36 180 37 181 37 183 38 184 38 185 39 186 39 188 40 189 40 190 41 191 41 193 42 194 42 195 43 196 43 197 44 198 44 199 45 200 45 201 47 203 47 204 48 205 48 206 50 208 50 209 52 211 52 212 54 214 54 215 57 218 57 219 61 223 61 224 81 244 82 244 86 248 87 248 91 252 92 252 95 255 96 255 98 257 99 257 102 260 103 260 105 262 106 262 108 264 109 264 111 266 112 266 114 268 115 268 117 270 118 270 119 271 120 271 122 273 123 273 125 275 126 275 127 276 128 276 130 278 131 278 132 279 133 279 135 281 136 281 137 282 138 282 140 284 141 284 142 285 143 285 145 287 146 287 147 288 148 288 150 290 151 290 152 291 152 201 150 199 149 199 146 196 145 196 141 192 140 192 137 189 136 189 130 183 129 183 120 174 121 173 123 173 124 174 125 174 126 175 128 175 129 176 130 176 131 177 133 177 134 178 136 178 137 179 138 179 139 180 141 180 142 181 143 181 144 182 146 182 147 183 149 183 150 184 151 184 152 185 153 185 154 186 155 186 157 188 158 188 159 189 159 190 160 191 160 194 161 195 161 413 160 414 160 417 159 418 159 419 158 420 157 420 155 422 154 422 153 423 152 423 151 424 150 424 149 425 147 425 146 426 144 426 143 427 142 427 141 428 139 428 138 429 137 429 136 430 134 430 133 431 131 431 130 432 129 432 128 433 126 433 125 434 124 434 123 435 121 435 121 452 270 452 270 435 269 435 268 434 266 434 265 433 263 433 262 432 260 432 259 431 258 431 257 430 255 430 254 429 252 429 251 428 249 428 248 427 246 427 245 426 244 426 243 425 241 425 240 424 238 424 237 423 236 423 234 421 233 421 229 417 229 414 228 413 228 319 229 318 286 318 287 319 291 319 294 322 294 323 295 323 296 324 296 326 297 327 297 331 298 332 298 334 299 335 299 336 300 337 300 340 301 341 301 342 302 343 302 344 303 345 303 348 304 349 304 351 305 352 305 353 306 354 306 356 307 357 307 358 329 358 329 244 307 244 307 246 306 247 306 249 305 250 305 252 304 253 304 255 303 256 303 258 302 259 302 261 301 262 301 264 300 265 300 267 299 268 299 270 298 271 298 273 297 274 297 276 296 277 296 278 295 279 295 280 294 281 294 282 291 285 229 285 228 284 228 190 229 189 328 189 329 190 332 190 333 191 334 191 336 193 336 194 337 195 337 196 338 197 338 198 339 199 339 202 340 203 340 205 341 206 341 209 342 210 342 212 343 213 343 216 344 217 344 219 345 220 345 222 346 223 346 226 347 227 347 229 348 230 348 233 349 234 349 236 350 237 350 238 377 238 377 155 121 155 121 173 120 174 116 170 116 169 112 165 112 164 109 161 109 160 107 158 107 157 106 156 106 155 104 153 104 152 103 151 103 150 102 149 102 148 101 147 101 145 100 144 100 143 99 142 99 140 98 139 98 137 97 136 97 133 96 132 96 128 95 127 95 122 94 121 94 113 93 112 93 104 94 103 94 96 95 95 95 91 96 90 96 87 97 86 97 84 98 83 98 81 99 80 99 78 100 77 100 76 101 75 101 74 102 73 102 72 103 71 103 70 104 69 104 68 106 66 106 65 107 64 107 63 110 60 110 59 115 54 115 53 120 48 121 48 126 43 127 43 130 40 131 40 133 38 134 38 135 37 136 37 138 35 139 35 140 34 141 34 142 33 144 33 145 32 146 32 147 31 148 31 149 30 151 30 152 29 154 29 155 28 157 28 158 27 162 27 163 26 168 26 169 25 185 25 186 24 187 24 188 25 198 25 199 26 203 26 204 27 207 27 208 28 211 28 212 29 214 29 215 30 217 30 218 31 219 31 220 32 222 32 223 33 224 33 225 34 226 34 227 35 228 35 229 36 230 36 231 37 232 37 233 38 234 38 235 39 236 39 237 40 238 40 240 42 241 42 243 44 244 44 247 47 248 47 252 51 253 51 261 59 261 60 266 65 266 66 269 69 269 70 271 72 271 73 272 74 272 75 274 77 274 78 275 79 275 80 276 81 276 82 277 83 277 84 279 86 279 87 280 88 280 89 281 90 281 92 282 93 282 94 283 95 283 96 284 97 284 99 285 100 285 101 286 102 286 104 287 105 287 107 288 108 288 110 289 111 289 113 290 114 290 117 291 118 291 120 292 121 292 125 293 126 293 130 294 131 294 136 295 137 295 144 296 145 296 147 297 148 310 148 310 134 309 133 309 53 308 52 308 46 306 44 305 44 304 43 303 43 302 42 301 42 300 41 299 41 298 40 296 40 295 39 294 39 293 38 292 38 291 37 290 37 289 36 288 36 287 35 285 35 284 34 283 34 282 33 281 33 280 32 279 32 278 31 276 31 275 30 274 30 273 29 272 29 271 28 269 28 268 27 267 27 266 26 265 26 264 25 262 25 261 24 260 24 259 23 258 23 257 22 255 22 254 21 253 21 252 20 250 20 249 19 248 19 247 18 245 18 244 17 242 17 241 16 239 16 238 15 236 15 235 14 233 14 232 13 230 13 229 12 226 12 225 11 222 11 221 10 217 10 216 9 212 9 211 8 207 8 206 7 200 7 199 6 191 6 190 5 Z"/>
</svg>
