<?xml version="1.0" encoding="utf-8"?>
<!DOCTYPE svg PUBLIC "-//W3C//DTD SVG 1.0//EN" "http://www.w3.org/TR/2001/REC-SVG-20010904/DTD/svg10.dtd">
<svg version="1.0" xmlns="http://www.w3.org/2000/svg" width="1024" height="1024" viewBox="0 0 1024 1024" preserveAspectRatio="xMidYMid meet">
 <g fill="#000000">
  <path d="M521 982.3 c-48 -2.7 -96.4 -11 -136.5 -23.5 -7.1 -2.2 -13.8 -4.2 -14.7 -4.5 -1 -0.3 -1.8 -0.9 -1.8 -1.3 0 -0.4 -1 -0.8 -2.2 -0.8 -1.3 0 -7.7 -2.1 -14.3 -4.6 -19.7 -7.6 -24.5 -9.8 -23.8 -10.9 0.4 -0.6 0 -0.8 -1 -0.4 -2 0.8 -17.8 -6.3 -17 -7.6 0.3 -0.6 0.1 -0.7 -0.5 -0.3 -1.4 0.9 -16.3 -6.5 -15.5 -7.7 0.3 -0.6 0.1 -0.7 -0.5 -0.3 -1.6 1 -14.4 -6.3 -13.5 -7.7 0.4 -0.6 0 -0.8 -0.9 -0.4 -3 1.1 -49.5 -28.4 -48.1 -30.6 0.3 -0.5 0.1 -0.7 -0.4 -0.4 -1.3 0.8 -6.4 -2.8 -20.6 -14.6 -5.9 -4.9 -10.5 -9.3 -10.1 -9.8 0.3 -0.5 0.1 -0.8 -0.4 -0.7 -0.5 0.2 -2.8 -1.2 -5.2 -3.1 -3.3 -2.6 -3.9 -3.6 -2.9 -4.3 1.1 -0.8 1 -0.9 -0.3 -0.5 -2.1 0.7 -24.3 -21.7 -23.2 -23.4 0.4 -0.7 0.3 -0.9 -0.4 -0.5 -2.9 1.8 -43.5 -52.5 -41.6 -55.5 0.4 -0.7 0.3 -0.9 -0.3 -0.6 -1 0.6 -12.8 -19 -13.5 -22.4 -0.2 -0.8 -0.7 -1.7 -1.1 -2 -1.2 -0.9 -15 -31.4 -19.2 -42.4 -2.1 -5.5 -4.3 -11.3 -5 -13 -3.3 -7.9 -7.6 -22.6 -6.9 -23.6 0.4 -0.8 0.3 -0.9 -0.4 -0.5 -0.7 0.4 -1.2 0.5 -1.2 0.2 0 -0.3 -2.1 -8.8 -4.6 -18.8 -2.5 -10 -4.3 -19 -4.1 -20 0.3 -1 0.2 -1.6 -0.2 -1.3 -1 0.6 -5.5 -23.6 -5.6 -29.7 0 -2.5 -0.3 -4.4 -0.6 -4.2 -1.1 0.6 -3.9 -27.6 -5 -50.9 -0.8 -16.7 -0.8 -28.3 0 -43.5 1.2 -23.3 3.1 -42.8 4 -41.3 0.3 0.5 0.7 -2.5 0.8 -6.8 0.4 -14.2 14.4 -75 16.5 -71.9 0.6 0.9 0.7 0.5 0.3 -0.9 -0.8 -2.8 3.5 -16.4 4.8 -15.6 0.6 0.3 0.7 0.1 0.3 -0.6 -0.9 -1.4 1.4 -8.2 2.6 -7.5 0.4 0.3 0.5 -0.1 0.2 -0.9 -0.4 -1.2 1.6 -6.7 11.3 -30.4 0.3 -0.7 1 -1 1.6 -0.6 0.6 0.3 0.7 0.1 0.3 -0.5 -0.9 -1.4 6.5 -16.3 7.7 -15.5 0.6 0.3 0.7 0.1 0.3 -0.5 -0.9 -1.5 6.5 -16.2 7.8 -15.5 0.6 0.3 0.8 0.3 0.4 -0.2 -0.9 -0.9 -0.3 -2 6.9 -14.2 3 -5.1 5.9 -9.3 6.4 -9.3 0.5 0 0.8 -0.3 0.7 -0.7 -0.2 -1.4 1.4 -4.3 2.1 -3.8 0.4 0.2 0.8 -0.2 0.8 -0.9 0 -2.6 21.8 -32.6 25 -34.5 1 -0.6 1.4 -1.1 1 -1.1 -0.5 0 0.5 -1.8 2.3 -4 2.1 -2.6 3.6 -3.7 4.8 -3.4 1.2 0.4 1.3 0.3 0.5 -0.3 -0.9 -0.7 -0.5 -1.8 1.8 -4.6 1.6 -2 3.5 -3.6 4.1 -3.4 0.6 0.1 1.2 -0.6 1.3 -1.7 0.4 -2.2 5.5 -7.7 6.5 -7.1 0.8 0.5 2.9 -1.5 2.7 -2.5 -0.2 -1.1 1.9 -3.7 4.3 -5.3 1.3 -0.9 2 -1.7 1.5 -1.7 -0.5 0 0.4 -1.3 2 -3 1.5 -1.6 3.2 -2.7 3.7 -2.4 0.5 0.3 0.7 0.1 0.6 -0.4 -0.4 -1.4 9.3 -10.2 10.5 -9.5 0.6 0.3 0.7 0.1 0.4 -0.4 -1 -1.6 23.4 -22.9 24.7 -21.6 0.3 0.3 0.6 0.2 0.6 -0.4 0 -1.8 21.8 -17.5 23.1 -16.7 0.7 0.4 0.9 0.3 0.6 -0.3 -0.4 -0.6 5.3 -4.9 13.1 -10 18.8 -12.3 21 -13.5 22.3 -12.7 0.7 0.4 0.9 0.3 0.6 -0.3 -0.6 -0.9 7.4 -5.7 22.4 -13.6 16.8 -8.8 56.2 -25.7 59.9 -25.7 0.9 0 2 -0.4 2.5 -0.9 1.2 -1.1 28.9 -9.9 42.1 -13.5 5 -1.3 10.4 -2.1 11.9 -1.8 1.9 0.3 2.6 0.1 2.1 -0.7 -0.4 -0.6 -0.5 -1.1 -0.3 -1.1 0.2 0 7.1 -1.4 15.3 -3 8.2 -1.7 17.3 -3.2 20.2 -3.4 2.8 -0.1 5.5 -0.6 5.9 -0.9 0.9 -0.9 7 -0.9 7.6 0.1 0.2 0.4 0.3 0.2 0.1 -0.4 -0.4 -2 32.5 -4.4 61.1 -4.4 24.2 0 57.7 1.9 56.8 3.3 -0.4 0.6 -0.1 0.7 0.6 0.3 1.5 -0.9 17.3 0.3 16.7 1.3 -0.2 0.3 3 0.7 7.2 0.8 4.3 0.1 15.4 1.6 24.7 3.3 9.4 1.6 17.5 3 18 3.1 0.6 0.1 -0.1 0.5 -1.5 1 -2 0.7 -1.7 0.8 1.4 0.4 4 -0.4 22.8 3.3 22.2 4.4 -0.2 0.3 1.4 0.6 3.5 0.6 2.6 0.1 4.4 0.7 5.5 2 0.8 1.1 1.3 1.4 0.9 0.8 -0.3 -0.7 -0.4 -1.3 0 -1.3 0.6 0 14.6 3.7 19 5 1.7 0.5 4.9 1.4 7.3 2 2.3 0.6 4 1.5 3.7 2 -0.4 0.6 1 1 3.2 1 3.6 0 19.2 4.6 20.3 5.9 0.3 0.4 1.6 0.8 3 0.9 4.5 0.2 21 6.6 21 8 0 1 0.8 1.3 2.7 0.9 3.1 -0.6 14.7 3.5 13.6 4.8 -0.5 0.4 -0.2 0.5 0.5 0.1 1.7 -1 8.4 1.3 7.6 2.6 -0.4 0.6 0.3 0.9 1.7 0.7 2.8 -0.4 22.9 5.9 22.9 7.1 0 0.5 1.2 0.9 2.8 0.8 1.5 0 5.2 0.9 8.3 2 3 1.1 7.4 2.3 9.7 2.7 2.3 0.4 4 1 3.8 1.3 -0.2 0.4 1.7 0.8 4.2 0.8 18.4 0.4 25.2 0.1 24.6 -0.7 -0.2 -0.4 1.1 -1 2.9 -1.3 1.8 -0.3 6.6 -2.2 10.6 -4.1 10.3 -5 18.6 -13.4 23.9 -24.5 4 -8.4 8.2 -22 8.2 -26.9 0 -4.7 0.5 -4.9 18.2 -4.7 l16.8 0.1 0 161.1 0 161.1 -6.2 -0.1 c-3.5 -0.1 -6.9 -0.5 -7.5 -0.9 -0.8 -0.5 -1.3 -0.4 -1.3 0.2 0 1.5 -5.3 1.4 -6.9 -0.2 -1.1 -0.9 -1.3 -0.9 -0.7 0.1 0.5 0.9 -0.5 1.2 -3.8 1.2 -4.5 0 -4.5 0 -5.6 -4.2 -5.2 -19.9 -11.6 -38.7 -19 -56.3 -2.3 -5.5 -4.2 -11 -4.1 -12.3 0 -1.2 -0.5 -2.2 -1.2 -2.2 -1.6 0 -8 -13.7 -7.1 -15.2 0.4 -0.6 0.3 -0.8 -0.4 -0.5 -0.9 0.6 -8.3 -11.3 -8.1 -13.1 0.3 -1.8 -0.2 -3.3 -0.9 -2.8 -0.5 0.3 -4.5 -5 -9 -11.7 -4.4 -6.7 -12 -17.1 -16.8 -23.2 -11 -13.8 -38.7 -41.4 -52.1 -52 -7 -5.5 -9.8 -8.2 -9 -8.8 0.8 -0.6 0.7 -0.7 -0.5 -0.4 -1.6 0.6 -8.2 -3.5 -7.3 -4.5 0.3 -0.2 -0.1 -0.5 -0.8 -0.5 -1.9 0 -15.7 -9.5 -15.1 -10.4 0.3 -0.5 -0.1 -0.7 -0.8 -0.4 -1.7 0.6 -10 -4.9 -9.1 -6 0.5 -0.4 0.3 -0.5 -0.3 -0.2 -0.6 0.4 -8.5 -3.1 -17.5 -7.7 -9 -4.5 -21.4 -10.2 -27.6 -12.6 -6.2 -2.4 -10.9 -4.8 -10.6 -5.3 0.3 -0.6 0.1 -0.7 -0.5 -0.3 -0.7 0.4 -5.6 -0.7 -10.9 -2.4 -35 -11.2 -70.9 -16.3 -108.8 -15.5 -10.4 0.2 -25.1 1.2 -32.5 2.1 -7.4 1 -14.8 1.8 -16.5 1.8 -1.6 0.1 -3.2 0.3 -3.5 0.6 -0.3 0.3 -5.2 1.6 -11 2.9 -10.3 2.2 -32.6 9 -38.5 11.6 -1.6 0.7 -5.5 2.3 -8.5 3.5 -8.8 3.4 -32.6 16.1 -43.7 23.3 -5.7 3.7 -10.3 6.5 -10.3 6.3 0 -0.2 -1.4 0.9 -3.1 2.5 -1.7 1.6 -3.5 2.9 -3.9 2.9 -0.4 0 -2.4 1.6 -4.4 3.5 -2.1 1.9 -4.2 3.3 -4.7 2.9 -0.5 -0.3 -0.8 -0.2 -0.7 0.3 0.2 0.5 -3.3 4.1 -7.7 8 -10.2 9 -20.1 19.3 -30 31.3 -4.3 5.2 -8.4 9.7 -9.2 9.8 -0.8 0.2 -1.2 0.9 -1 1.5 0.6 1.7 -9.4 15.8 -10.6 15 -0.6 -0.3 -0.7 -0.1 -0.3 0.5 0.3 0.6 -0.3 2.6 -1.4 4.4 -1.1 1.8 -2 2.7 -2 1.9 0 -2.2 -1.2 -0.4 -1.5 2.2 -0.2 1.3 -2 5.2 -4.2 8.8 -4.9 7.9 -20.3 39.2 -20.3 41.1 0 0.7 -0.6 2.2 -1.3 3.3 -1.6 2.3 -11.7 30.1 -11.7 32.1 0 0.8 -0.8 1.4 -1.7 1.4 -1.1 0 -1.4 0.3 -0.7 0.8 0.7 0.5 -0.1 5.1 -2.8 14.7 -15.5 56.1 -23.6 132.9 -20.9 196 1.3 29 2.5 45.2 4.7 65.5 1.8 16.5 8.3 56.2 11.3 69.3 1.2 4.9 1.9 10 1.6 11.5 -0.3 1.8 -0.3 2.1 0.2 1 0.6 -1.2 1.8 1.9 3.8 10.1 1.7 6.6 2.7 11.7 2.3 11.5 -0.4 -0.3 -0.8 0.4 -0.8 1.5 0 1.2 0.5 1.8 1.3 1.6 0.8 -0.4 2.3 2.8 4.5 9.6 1.8 5.5 4.9 14.2 6.9 19.2 2 5.1 3.6 9.8 3.6 10.5 0 0.6 0.4 1.2 0.8 1.2 0.4 0 1.1 1 1.5 2.3 0.3 1.2 2.6 6.2 5 11 4.8 9.6 5 10.2 3.2 9.1 -0.7 -0.4 -0.8 -0.3 -0.4 0.5 0.4 0.6 1.1 0.9 1.5 0.6 0.5 -0.2 1.7 1.5 2.7 3.8 1 2.3 2.1 4.4 2.4 4.7 1.8 1.6 8.9 14 8 14 -0.6 0 -0.8 0.5 -0.5 1 0.4 0.6 1 0.8 1.4 0.5 1.1 -0.6 11.7 14.5 11.3 15.9 -0.2 0.6 -0.1 0.8 0.3 0.4 1 -1 12.5 13.3 11.8 14.5 -0.3 0.6 -0.1 0.7 0.4 0.4 0.6 -0.4 2.5 1 4.2 3.1 5.2 6.3 5.7 6.8 8 8.4 1.2 0.9 2.4 2.4 2.5 3.4 0.2 1.1 1 1.9 1.8 1.9 0.8 0 4.8 3 8.9 6.6 4.1 3.5 10.3 8.4 13.7 10.8 3.4 2.4 5.9 4.7 5.6 5.2 -0.3 0.5 0.3 0.6 1.2 0.2 1.2 -0.4 1.5 -0.3 1 0.5 -0.4 0.7 -0.1 1.2 0.8 1.2 0.9 0 4.2 1.7 7.3 3.7 3.2 2 11.8 6.8 19.2 10.5 7.4 3.7 12.8 6.8 12 6.8 -1.2 0 -1.2 0.2 0.1 1 1.9 1.2 3.3 1.3 2.6 0.1 -0.4 -0.5 0.3 -0.7 1.4 -0.4 1.1 0.3 1.8 0.9 1.5 1.3 -0.3 0.4 0.1 0.7 0.8 0.6 2.6 -0.2 17.7 5.9 17.7 7.3 0 0.9 0.8 1.2 2.6 0.8 1.4 -0.2 7 0.8 12.4 2.4 5.4 1.5 11.4 3.1 13.4 3.5 2 0.3 3.6 0.9 3.6 1.3 0 0.4 1.6 0.8 3.6 0.9 1.9 0.1 6.8 0.8 10.7 1.6 4 0.8 11.8 2 17.4 2.7 5.6 0.7 10 1.5 9.8 1.8 -0.4 0.8 5.7 0.9 41.2 1.3 16.1 0.2 29.3 0 29.3 -0.3 0 -0.3 5.3 -1.1 11.8 -1.7 6.4 -0.7 17.3 -2.2 24.2 -3.4 6.9 -1.3 14.2 -2.2 16.2 -2.2 2.1 0 3.3 -0.3 2.7 -0.7 -0.6 -0.3 0.6 -1 2.7 -1.3 2.1 -0.4 9.1 -2.3 15.5 -4.2 6.5 -1.9 12.6 -3.1 13.6 -2.8 1.4 0.5 1.5 0.4 0.4 -0.4 -1.1 -0.8 -0.6 -1.3 2.4 -2.1 2.1 -0.6 4.3 -0.7 4.8 -0.4 0.6 0.3 0.7 0.2 0.4 -0.4 -0.3 -0.5 1.1 -1.5 3.1 -2.3 9 -3.2 32.8 -14.3 44.6 -20.8 7.1 -4 13.4 -6.9 14 -6.5 0.6 0.3 0.8 0.2 0.3 -0.2 -1.1 -1.3 7.5 -6.6 9.5 -5.9 1 0.3 1.8 0 1.8 -0.6 0 -0.6 -0.4 -0.8 -1 -0.5 -0.5 0.3 -1 0.4 -1 0.2 0 -1.1 11.2 -7.7 12.1 -7.2 0.5 0.4 0.8 0.2 0.7 -0.3 -0.4 -1.4 10.3 -9.3 11.5 -8.5 0.6 0.3 0.7 0.2 0.4 -0.4 -0.7 -1.1 7.6 -7.5 8.7 -6.8 0.3 0.3 0.4 0.2 0.2 -0.1 -0.8 -1.1 9.4 -8.5 10.6 -7.8 0.6 0.4 0.8 0.3 0.4 -0.4 -0.7 -1.1 7.9 -8.9 9.5 -8.4 0.5 0.1 0.8 -0.2 0.7 -0.6 -0.5 -1.5 15.1 -15.4 16.3 -14.6 0.7 0.4 0.9 0.3 0.6 -0.3 -0.6 -0.9 5.8 -7.9 7.8 -8.5 0.6 -0.2 0.9 -0.6 0.8 -0.9 -0.3 -0.8 6 -6.8 7.2 -6.9 0.6 0 1 -0.4 1 -0.9 0 -0.5 2.3 -3.3 5 -6.3 6.8 -7.1 26.7 -29.6 33.8 -38.1 5.3 -6.4 5.7 -6.7 5.7 -4 0 1.5 -0.1 9.6 -0.1 17.8 0 8.7 -0.4 15.1 -0.9 15.3 -0.6 0.2 -1 0.8 -1 1.3 0 0.6 0.5 0.7 1 0.4 1.6 -1 1.3 36.7 -0.2 38.4 -0.8 0.9 -0.9 1.2 -0.1 0.7 1.9 -1 2.1 10.2 0.2 13.3 -0.9 1.4 -6.1 7.6 -11.7 13.7 -18.5 20.3 -49.3 46.9 -53 45.8 -1.3 -0.5 -1.4 -0.4 -0.3 0.4 1 0.7 -1.2 2.7 -9.4 8.3 -5.9 4.1 -11.3 7.3 -12.1 7.3 -0.8 -0.1 -1.2 0.2 -0.9 0.6 0.6 0.9 -22.3 15 -24.4 15 -0.8 0 -1.9 0.6 -2.5 1.4 -1.8 2.4 -26.1 14.6 -29 14.6 -1.5 0 -2.5 0.4 -2.2 0.9 0.7 1 -20.6 10.3 -22.5 9.8 -0.8 -0.2 -1 -0.2 -0.5 0.1 1.5 0.8 -14.4 6.2 -16.1 5.5 -1 -0.4 -1.4 -0.2 -0.9 0.5 0.8 1.3 -2.9 2.6 -4.5 1.6 -0.7 -0.4 -0.9 -0.3 -0.6 0.3 0.7 1.1 -15.9 6.6 -17.3 5.8 -0.5 -0.3 -1 0 -1.2 0.7 -0.2 0.6 -2 1.2 -4 1.2 -2 0.1 -3.4 0.4 -3.1 0.9 0.2 0.4 0.2 0.7 -0.1 0.7 -0.3 0 -6.9 1.6 -14.7 3.6 -7.9 1.9 -15.1 3.3 -16.1 3.1 -1 -0.3 -1.8 -0.2 -1.8 0.2 0 1.3 -36.4 7.3 -54.5 9.1 -26.8 2.6 -72.9 3.7 -97.5 2.3z"/>
  <path d="M399 824.4 l0 -17.7 6.8 0.6 c4.4 0.4 6.2 0.3 5.2 -0.3 -1.2 -0.8 -1.1 -1 0.8 -1 1.2 0 2.2 0.5 2.2 1 0 0.6 0.4 1 1 1 0.5 0 0.7 -0.6 0.4 -1.4 -0.4 -0.9 0.6 -1.6 3.3 -2.1 6.9 -1.2 16.6 -6.6 22.4 -12.4 6.5 -6.6 11.1 -15.3 13.6 -25.9 1.7 -7.3 1.8 -18.7 1.8 -221.2 0 -200.2 -0.2 -231.8 -1.5 -233 -0.3 -0.3 -1.6 -3.2 -2.9 -6.5 -3.3 -8.3 -8.4 -15 -15.2 -20 -3.2 -2.4 -5.5 -4.5 -5.2 -4.8 0.3 -0.3 -0.3 -0.6 -1.3 -0.5 -1.1 0 -4.4 -0.9 -7.4 -2 -3 -1.1 -8.2 -2.3 -11.5 -2.7 -3.3 -0.3 -7.4 -0.8 -9.2 -1.1 l-3.2 -0.5 0.1 -16.4 0.1 -16.5 221.7 0 c200.8 0 221.8 0.2 222.4 1.6 1 2.6 0.7 4.6 -0.6 3.8 -0.7 -0.5 -0.8 -0.3 -0.2 0.7 0.5 0.8 0.9 6.4 1 12.6 0.2 9.6 0 11.3 -1.5 11.6 -1.2 0.4 -1.3 0.5 -0.1 0.6 1.3 0.1 1.5 5.7 1.5 43.6 0 28.7 -0.3 43.5 -1 43.5 -0.7 0 -0.7 0.3 0 0.8 1.4 1 1.5 14.5 0.1 15.4 -0.8 0.6 -0.8 0.8 0.1 0.8 0.8 0 1.1 2.4 1.1 7.3 0 11.8 2.8 10.6 -26.6 10.4 l-25.6 -0.2 -1.7 -6.5 c-3 -11.4 -7.8 -24.1 -13.9 -36.5 -16.7 -34.2 -41.7 -53 -78.5 -59 -6.9 -1.1 -18.5 -1.5 -49.2 -1.5 -25.9 0 -40.4 -0.4 -40.8 -1 -0.4 -0.6 -1.2 -0.5 -2.1 0.4 -1.3 1.3 -1.5 16.1 -1.4 110.2 0 59.7 0.2 108.9 0.4 109.3 0.3 0.4 4.7 0.6 9.8 0.6 5.1 -0.1 9.8 0.2 10.5 0.7 0.6 0.5 1.4 0.5 1.7 -0.1 0.8 -1.2 20.9 -0.3 21.7 1 0.3 0.6 1 0.4 1.7 -0.4 0.8 -0.9 3.8 -1.4 9.4 -1.6 10.4 -0.2 18.8 -1.5 26.1 -4 3.1 -1.1 5.7 -1.8 5.7 -1.5 0 0.3 0.6 0 1.3 -0.6 0.6 -0.6 4 -2.8 7.3 -4.9 10.4 -6.6 20.3 -21.1 25 -36.3 1 -3.2 2.2 -5.8 2.6 -5.8 0.5 0 0.7 -0.4 0.3 -0.9 -0.3 -0.6 0.2 -3.9 1.1 -7.4 l1.6 -6.4 22.6 -0.2 c12.5 -0.1 23.5 0.1 24.5 0.4 1.6 0.7 1.7 4.1 1.7 51.2 0 33.3 -0.3 50.2 -1 49.8 -0.6 -0.3 -1 -0.1 -1 0.4 0 0.6 0.5 1.1 1 1.1 1.6 0 1.3 29.7 -0.2 30.4 -1 0.5 -1 0.7 0 1.2 1.5 0.7 1.6 5.6 0 7.2 -0.9 0.9 -0.9 1.2 0 1.2 0.9 0 1.2 5.7 1.2 22.5 l0 22.5 -24.4 0 -24.3 0 -1.3 -6.2 c-0.7 -3.5 -2.4 -9.8 -3.7 -14.1 -1.3 -4.2 -2.1 -8.3 -1.7 -9 0.4 -0.6 0.4 -0.9 -0.1 -0.5 -0.4 0.4 -2.5 -2.9 -4.6 -7.3 -2.1 -4.4 -5 -9.5 -6.4 -11.4 -1.9 -2.4 -2.2 -3.4 -1.3 -3.8 0.8 -0.3 0.6 -0.6 -0.5 -0.6 -2 -0.1 -7.4 -5.9 -6.9 -7.4 0.1 -0.5 -0.3 -0.7 -1 -0.5 -0.7 0.3 -3.4 -1 -6 -2.8 -13 -8.9 -27.2 -11.4 -65 -11.4 l-27.8 0 -0.2 72.3 c-0.2 39.7 0 86.8 0.3 104.7 0.6 37 1.2 40 9.1 52.1 2.3 3.5 4.2 6.9 4.3 7.4 0 0.6 0.5 1 1 1 2 0.1 6.5 3.8 5.8 4.9 -0.3 0.6 -0.3 0.8 0.1 0.5 0.4 -0.4 3.6 0.8 7 2.6 3.5 1.8 8.9 3.9 11.9 4.5 3.5 0.8 5.4 1.7 5.1 2.5 -0.3 0.6 0.2 1.2 1.1 1.2 0.8 0 1.5 -0.4 1.5 -0.9 0 -0.4 1.2 -0.8 2.6 -0.8 1.4 0 2.3 0.4 2 0.8 -0.3 0.5 2.2 0.8 5.4 0.6 l6 -0.2 0 7.2 c0 4.4 -0.5 7.7 -1.2 8.5 -1 1.1 -1 1.3 0 0.7 0.9 -0.6 1.2 1.3 1.2 7.8 0 7 -0.3 8.6 -1.5 8.6 -0.8 0 -1.5 0.5 -1.5 1 0 0.7 -44.8 1 -132.5 1 l-132.5 0 0 -17.6z"/>
 </g>
</svg>